<mxfile host="app.diagrams.net" modified="2023-05-17T07:09:00.678Z" agent="Mozilla/5.0 (Windows NT 10.0; Win64; x64) AppleWebKit/537.36 (KHTML, like Gecko) Chrome/113.0.0.0 Safari/537.36" etag="I6SMWwG9zd0YeOtdQXiq" version="21.3.2" type="device">
  <diagram name="1 oldal" id="JSUzjwk5eCRvlBvlkrQ9">
    <mxGraphModel dx="1434" dy="796" grid="1" gridSize="10" guides="1" tooltips="1" connect="1" arrows="1" fold="1" page="1" pageScale="1" pageWidth="827" pageHeight="1169" math="0" shadow="0">
      <root>
        <mxCell id="0" />
        <mxCell id="1" parent="0" />
        <mxCell id="DPumfeYoZTjdJsbqFcMS-21" style="edgeStyle=orthogonalEdgeStyle;rounded=0;orthogonalLoop=1;jettySize=auto;html=1;entryX=-0.013;entryY=0.909;entryDx=0;entryDy=0;entryPerimeter=0;" edge="1" parent="1">
          <mxGeometry relative="1" as="geometry">
            <mxPoint x="190" y="450" as="sourcePoint" />
            <mxPoint x="265.97" y="309.9960000000001" as="targetPoint" />
            <Array as="points">
              <mxPoint x="190" y="347" />
              <mxPoint x="130" y="347" />
              <mxPoint x="130" y="290" />
              <mxPoint x="266" y="290" />
            </Array>
          </mxGeometry>
        </mxCell>
        <mxCell id="DPumfeYoZTjdJsbqFcMS-20" style="edgeStyle=orthogonalEdgeStyle;rounded=0;orthogonalLoop=1;jettySize=auto;html=1;entryX=1;entryY=0.5;entryDx=0;entryDy=0;" edge="1" parent="1">
          <mxGeometry relative="1" as="geometry">
            <mxPoint x="605" y="460" as="sourcePoint" />
            <mxPoint x="580" y="292" as="targetPoint" />
          </mxGeometry>
        </mxCell>
        <mxCell id="DPumfeYoZTjdJsbqFcMS-40" style="edgeStyle=orthogonalEdgeStyle;rounded=0;orthogonalLoop=1;jettySize=auto;html=1;entryX=0.387;entryY=0.017;entryDx=0;entryDy=0;entryPerimeter=0;" edge="1" parent="1" source="DPumfeYoZTjdJsbqFcMS-9" target="DPumfeYoZTjdJsbqFcMS-36">
          <mxGeometry relative="1" as="geometry" />
        </mxCell>
        <mxCell id="DPumfeYoZTjdJsbqFcMS-9" value="Main&lt;br&gt;" style="swimlane;fontStyle=0;childLayout=stackLayout;horizontal=1;startSize=26;fillColor=none;horizontalStack=0;resizeParent=1;resizeParentMax=0;resizeLast=0;collapsible=1;marginBottom=0;whiteSpace=wrap;html=1;" vertex="1" parent="1">
          <mxGeometry x="320" y="110" width="140" height="52" as="geometry" />
        </mxCell>
        <mxCell id="DPumfeYoZTjdJsbqFcMS-10" value="jatek()" style="text;strokeColor=none;fillColor=none;align=left;verticalAlign=top;spacingLeft=4;spacingRight=4;overflow=hidden;rotatable=0;points=[[0,0.5],[1,0.5]];portConstraint=eastwest;whiteSpace=wrap;html=1;" vertex="1" parent="DPumfeYoZTjdJsbqFcMS-9">
          <mxGeometry y="26" width="140" height="26" as="geometry" />
        </mxCell>
        <mxCell id="DPumfeYoZTjdJsbqFcMS-22" style="edgeStyle=orthogonalEdgeStyle;rounded=0;orthogonalLoop=1;jettySize=auto;html=1;entryX=0.066;entryY=1.077;entryDx=0;entryDy=0;entryPerimeter=0;shape=link;" edge="1" parent="1">
          <mxGeometry relative="1" as="geometry">
            <mxPoint x="414" y="692" as="sourcePoint" />
            <mxPoint x="479.1400000000001" y="604.7739999999999" as="targetPoint" />
          </mxGeometry>
        </mxCell>
        <mxCell id="DPumfeYoZTjdJsbqFcMS-23" style="edgeStyle=orthogonalEdgeStyle;rounded=0;orthogonalLoop=1;jettySize=auto;html=1;entryX=0.558;entryY=1.1;entryDx=0;entryDy=0;entryPerimeter=0;" edge="1" parent="1" target="DPumfeYoZTjdJsbqFcMS-39">
          <mxGeometry relative="1" as="geometry">
            <mxPoint x="344" y="640" as="sourcePoint" />
            <Array as="points">
              <mxPoint x="344" y="376" />
              <mxPoint x="443" y="376" />
            </Array>
          </mxGeometry>
        </mxCell>
        <mxCell id="DPumfeYoZTjdJsbqFcMS-19" style="edgeStyle=orthogonalEdgeStyle;rounded=0;orthogonalLoop=1;jettySize=auto;html=1;entryX=0.988;entryY=0.115;entryDx=0;entryDy=0;entryPerimeter=0;" edge="1" parent="1">
          <mxGeometry relative="1" as="geometry">
            <mxPoint x="460" y="499" as="sourcePoint" />
            <mxPoint x="316.8800000000001" y="478.99" as="targetPoint" />
          </mxGeometry>
        </mxCell>
        <mxCell id="DPumfeYoZTjdJsbqFcMS-24" value="harry" style="swimlane;fontStyle=1;align=center;verticalAlign=top;childLayout=stackLayout;horizontal=1;startSize=26;horizontalStack=0;resizeParent=1;resizeParentMax=0;resizeLast=0;collapsible=1;marginBottom=0;whiteSpace=wrap;html=1;" vertex="1" parent="1">
          <mxGeometry x="450" y="450" width="310" height="118" as="geometry" />
        </mxCell>
        <mxCell id="DPumfeYoZTjdJsbqFcMS-25" value="-eletero&lt;br&gt;-varazsero&lt;br&gt;-kep: String" style="text;strokeColor=none;fillColor=none;align=left;verticalAlign=top;spacingLeft=4;spacingRight=4;overflow=hidden;rotatable=0;points=[[0,0.5],[1,0.5]];portConstraint=eastwest;whiteSpace=wrap;html=1;" vertex="1" parent="DPumfeYoZTjdJsbqFcMS-24">
          <mxGeometry y="26" width="310" height="44" as="geometry" />
        </mxCell>
        <mxCell id="DPumfeYoZTjdJsbqFcMS-26" value="" style="line;strokeWidth=1;fillColor=none;align=left;verticalAlign=middle;spacingTop=-1;spacingLeft=3;spacingRight=3;rotatable=0;labelPosition=right;points=[];portConstraint=eastwest;strokeColor=inherit;" vertex="1" parent="DPumfeYoZTjdJsbqFcMS-24">
          <mxGeometry y="70" width="310" height="8" as="geometry" />
        </mxCell>
        <mxCell id="DPumfeYoZTjdJsbqFcMS-27" value="+repul" style="text;strokeColor=none;fillColor=none;align=left;verticalAlign=top;spacingLeft=4;spacingRight=4;overflow=hidden;rotatable=0;points=[[0,0.5],[1,0.5]];portConstraint=eastwest;whiteSpace=wrap;html=1;" vertex="1" parent="DPumfeYoZTjdJsbqFcMS-24">
          <mxGeometry y="78" width="310" height="40" as="geometry" />
        </mxCell>
        <mxCell id="DPumfeYoZTjdJsbqFcMS-28" value="poti" style="swimlane;fontStyle=1;align=center;verticalAlign=top;childLayout=stackLayout;horizontal=1;startSize=26;horizontalStack=0;resizeParent=1;resizeParentMax=0;resizeLast=0;collapsible=1;marginBottom=0;whiteSpace=wrap;html=1;" vertex="1" parent="1">
          <mxGeometry x="20" y="450" width="310" height="118" as="geometry" />
        </mxCell>
        <mxCell id="DPumfeYoZTjdJsbqFcMS-29" value="&amp;nbsp;-ero:int&lt;br&gt;-kep:string" style="text;strokeColor=none;fillColor=none;align=left;verticalAlign=top;spacingLeft=4;spacingRight=4;overflow=hidden;rotatable=0;points=[[0,0.5],[1,0.5]];portConstraint=eastwest;whiteSpace=wrap;html=1;" vertex="1" parent="DPumfeYoZTjdJsbqFcMS-28">
          <mxGeometry y="26" width="310" height="44" as="geometry" />
        </mxCell>
        <mxCell id="DPumfeYoZTjdJsbqFcMS-30" value="" style="line;strokeWidth=1;fillColor=none;align=left;verticalAlign=middle;spacingTop=-1;spacingLeft=3;spacingRight=3;rotatable=0;labelPosition=right;points=[];portConstraint=eastwest;strokeColor=inherit;" vertex="1" parent="DPumfeYoZTjdJsbqFcMS-28">
          <mxGeometry y="70" width="310" height="8" as="geometry" />
        </mxCell>
        <mxCell id="DPumfeYoZTjdJsbqFcMS-31" value="+general:int" style="text;strokeColor=none;fillColor=none;align=left;verticalAlign=top;spacingLeft=4;spacingRight=4;overflow=hidden;rotatable=0;points=[[0,0.5],[1,0.5]];portConstraint=eastwest;whiteSpace=wrap;html=1;" vertex="1" parent="DPumfeYoZTjdJsbqFcMS-28">
          <mxGeometry y="78" width="310" height="40" as="geometry" />
        </mxCell>
        <mxCell id="DPumfeYoZTjdJsbqFcMS-32" value="voldi" style="swimlane;fontStyle=1;align=center;verticalAlign=top;childLayout=stackLayout;horizontal=1;startSize=26;horizontalStack=0;resizeParent=1;resizeParentMax=0;resizeLast=0;collapsible=1;marginBottom=0;whiteSpace=wrap;html=1;" vertex="1" parent="1">
          <mxGeometry x="104" y="650" width="310" height="118" as="geometry" />
        </mxCell>
        <mxCell id="DPumfeYoZTjdJsbqFcMS-33" value="-el/hal:boolean&lt;br&gt;-kep String" style="text;strokeColor=none;fillColor=none;align=left;verticalAlign=top;spacingLeft=4;spacingRight=4;overflow=hidden;rotatable=0;points=[[0,0.5],[1,0.5]];portConstraint=eastwest;whiteSpace=wrap;html=1;" vertex="1" parent="DPumfeYoZTjdJsbqFcMS-32">
          <mxGeometry y="26" width="310" height="44" as="geometry" />
        </mxCell>
        <mxCell id="DPumfeYoZTjdJsbqFcMS-34" value="" style="line;strokeWidth=1;fillColor=none;align=left;verticalAlign=middle;spacingTop=-1;spacingLeft=3;spacingRight=3;rotatable=0;labelPosition=right;points=[];portConstraint=eastwest;strokeColor=inherit;" vertex="1" parent="DPumfeYoZTjdJsbqFcMS-32">
          <mxGeometry y="70" width="310" height="8" as="geometry" />
        </mxCell>
        <mxCell id="DPumfeYoZTjdJsbqFcMS-35" value="+tamad:int" style="text;strokeColor=none;fillColor=none;align=left;verticalAlign=top;spacingLeft=4;spacingRight=4;overflow=hidden;rotatable=0;points=[[0,0.5],[1,0.5]];portConstraint=eastwest;whiteSpace=wrap;html=1;" vertex="1" parent="DPumfeYoZTjdJsbqFcMS-32">
          <mxGeometry y="78" width="310" height="40" as="geometry" />
        </mxCell>
        <mxCell id="DPumfeYoZTjdJsbqFcMS-36" value="jatek" style="swimlane;fontStyle=1;align=center;verticalAlign=top;childLayout=stackLayout;horizontal=1;startSize=26;horizontalStack=0;resizeParent=1;resizeParentMax=0;resizeLast=0;collapsible=1;marginBottom=0;whiteSpace=wrap;html=1;" vertex="1" parent="1">
          <mxGeometry x="270" y="244" width="310" height="74" as="geometry" />
        </mxCell>
        <mxCell id="DPumfeYoZTjdJsbqFcMS-38" value="" style="line;strokeWidth=1;fillColor=none;align=left;verticalAlign=middle;spacingTop=-1;spacingLeft=3;spacingRight=3;rotatable=0;labelPosition=right;points=[];portConstraint=eastwest;strokeColor=inherit;" vertex="1" parent="DPumfeYoZTjdJsbqFcMS-36">
          <mxGeometry y="26" width="310" height="8" as="geometry" />
        </mxCell>
        <mxCell id="DPumfeYoZTjdJsbqFcMS-39" value="+jatek()" style="text;strokeColor=none;fillColor=none;align=left;verticalAlign=top;spacingLeft=4;spacingRight=4;overflow=hidden;rotatable=0;points=[[0,0.5],[1,0.5]];portConstraint=eastwest;whiteSpace=wrap;html=1;" vertex="1" parent="DPumfeYoZTjdJsbqFcMS-36">
          <mxGeometry y="34" width="310" height="40" as="geometry" />
        </mxCell>
      </root>
    </mxGraphModel>
  </diagram>
</mxfile>
